<svg width="272" height="60" viewBox="0 0 272 60" fill="none" xmlns="http://www.w3.org/2000/svg">
<path d="M32.0347 16.3299C31.9165 19.2882 31.4436 21.2998 29.5523 22.6015C28.0156 23.7848 25.2968 23.7848 20.5684 23.7848H11.4663C6.61971 23.7848 4.0191 23.7848 2.48238 22.6015C-1.07096e-05 20.8265 0 17.7499 0 12.8982V10.8866C0 6.03495 0.118198 2.95831 2.48238 1.18332C4.0191 0 6.73792 0 11.4663 0H20.5684C25.415 0 28.0156 0 29.5523 1.18332C31.3254 2.48498 31.7983 4.3783 32.0347 7.21828H24.8239C24.8239 5.67995 21.5141 5.32496 18.2042 5.32496H13.9487C10.6388 5.32496 8.74747 5.44329 7.8018 6.27162C6.85612 7.09995 6.73791 8.51994 6.6197 11.1232V12.7799C6.6197 15.3832 6.85612 16.8032 7.8018 17.6315C8.74747 18.4599 10.6388 18.5782 13.9487 18.5782H18.2042C21.5141 18.5782 24.9421 18.2232 24.9421 16.3299H32.0347Z" fill="white"/>
<path d="M49.8844 23.903C49.0569 23.903 48.3477 23.193 48.3477 22.3647V17.158C48.3477 16.3297 47.8749 15.028 47.2838 14.4364L35.8175 1.18316C35.5811 0.946493 35.4629 0.709828 35.4629 0.591496C35.4629 0.236498 35.6993 0.118164 36.2904 0.118164H42.4372C43.2647 0.118164 44.4468 0.709826 44.9196 1.30149L50.9483 8.75643C51.1847 9.11143 51.5393 9.22976 51.894 9.22976C52.2486 9.22976 52.6032 9.11143 52.8396 8.75643L58.8683 1.30149C59.3411 0.709826 60.5232 0.118164 61.3507 0.118164H67.2612C67.8522 0.118164 68.0886 0.354829 68.0886 0.709826C68.0886 0.828158 67.9704 1.06482 67.734 1.30149L56.3859 14.5547C55.7949 15.1464 55.322 16.448 55.322 17.2764V22.483C55.322 23.3113 54.6128 24.0213 53.7853 24.0213L49.8844 23.903Z" fill="white"/>
<path d="M73.1734 23.903C72.346 23.903 71.6367 23.193 71.6367 22.3647V13.8447C71.6367 13.0164 72.346 12.3064 73.1734 12.3064H89.3681C90.0774 12.3064 91.2594 12.3064 91.8505 12.0697C93.1508 11.5964 93.1508 10.2948 93.1508 9.22976C93.1508 7.45478 92.6779 6.27145 90.7866 6.03478C90.3138 6.03478 89.8409 6.03478 89.3681 6.03478H73.1734C72.346 6.03478 71.6367 5.3248 71.6367 4.49647V1.65649C71.6367 0.828162 72.346 0.118164 73.1734 0.118164H90.3138C92.6779 0.118164 95.8696 0.118162 97.6427 1.41982C100.243 2.95814 100.48 6.03479 100.48 8.75643C100.48 16.803 98.1156 17.9864 90.5502 17.9864H80.5024C79.6749 17.9864 78.9657 18.6964 78.9657 19.5247V22.3647C78.9657 23.193 78.2564 23.903 77.429 23.903H73.1734Z" fill="white"/>
<path d="M105.441 23.9032C104.614 23.9032 103.904 23.1932 103.904 22.3649V1.6567C103.904 0.82837 104.614 0.118371 105.441 0.118371H109.697C110.406 3.90634e-05 111.115 0.710037 111.115 1.6567V8.16498C111.115 8.99331 111.824 9.7033 112.652 9.7033H125.891C126.719 9.7033 127.428 8.99331 127.428 8.16498V1.6567C127.428 0.82837 128.137 0.118371 128.965 0.118371H133.102C133.929 0.118371 134.639 0.82837 134.639 1.6567V22.3649C134.639 23.1932 133.929 23.9032 133.102 23.9032H128.965C128.137 23.9032 127.428 23.1932 127.428 22.3649V15.8566C127.428 15.0283 126.719 14.3183 125.891 14.3183H112.652C111.824 14.3183 111.115 15.0283 111.115 15.8566V22.2465C111.115 23.0749 110.406 23.7849 109.578 23.7849H105.441V23.9032Z" fill="white"/>
<path d="M167.383 22.3648C167.383 23.1932 166.674 23.9031 165.846 23.9031H146.933C144.214 23.9031 142.323 23.5482 140.904 22.8382C138.895 21.7732 138.186 19.8798 138.186 17.3949V6.27162C138.186 4.25997 138.54 2.24832 140.904 1.06499C142.205 0.473331 144.096 0 146.933 0H165.846C166.674 0 167.383 0.709998 167.383 1.53833V3.78663C167.383 4.61496 166.674 5.32496 165.846 5.32496H148.47C146.697 5.32496 146.342 5.4433 145.633 5.67996C144.923 5.91662 144.569 6.62661 144.569 7.33661C144.569 8.0466 144.923 8.87494 145.633 9.22993C146.106 9.4666 146.933 9.46659 146.933 9.46659H165.846C166.674 9.46659 167.383 10.1766 167.383 11.0049V12.5432C167.383 13.3716 166.674 14.0816 165.846 14.0816H146.933C146.933 14.0816 146.106 14.0816 145.633 14.3182C144.805 14.6732 144.451 15.5015 144.451 16.4482C144.451 17.3949 144.805 18.3415 145.633 18.5782C146.106 18.6965 146.697 18.6965 148.47 18.6965H165.846C166.674 18.6965 167.383 19.4065 167.383 20.2348V22.3648Z" fill="white"/>
<path d="M185.353 13.4897C185.353 12.6614 186.062 11.9514 186.89 11.9514H190.082C191.855 11.9514 192.446 10.1764 192.446 9.11143C192.446 7.33644 191.973 5.91645 190.082 5.91645H172.468C171.641 5.91645 170.932 5.20646 170.932 4.37813V1.65649C170.932 0.828162 171.641 0.118164 172.468 0.118164H189.609C191.973 0.118164 195.165 0.118162 196.938 1.41982C198.356 2.36648 199.065 3.78647 199.42 5.44312C199.538 6.27145 199.656 7.57311 199.656 8.75643V9.3481C199.656 11.3597 199.42 13.3714 198.829 14.5547C197.647 17.2764 195.519 17.7497 192.8 17.9864L198.474 22.9563C198.711 23.193 198.829 23.3113 198.829 23.548C198.829 23.7846 198.593 24.0213 198.002 24.0213H193.51C192.682 24.0213 191.382 23.548 190.791 22.9563L186.417 19.1697C185.826 18.578 185.235 17.3947 185.235 16.5664L185.353 13.4897Z" fill="white"/>
<path d="M235.236 10.8866V13.0166C235.236 17.8682 235.118 20.9448 232.753 22.7198C231.217 23.9031 228.498 23.9031 223.77 23.9031H214.667C209.821 23.9031 207.22 23.9031 205.684 22.7198C203.201 20.9448 203.201 17.8682 203.201 13.0166V10.8866C203.201 6.03495 203.319 2.95831 205.684 1.18332C207.22 0 209.939 0 214.667 0H223.77C228.616 0 231.217 0 232.753 1.18332C235.118 2.95831 235.236 6.03495 235.236 10.8866ZM228.498 11.1232C228.498 8.51994 228.38 7.09995 227.434 6.27162C226.488 5.4433 224.597 5.32496 221.287 5.32496H217.032C213.722 5.32496 211.83 5.4433 210.885 6.27162C209.939 7.09995 209.821 8.51994 209.703 11.1232V12.7799C209.703 15.3832 209.939 16.8032 210.885 17.6315C211.83 18.4599 213.722 18.5782 217.032 18.5782H221.287C224.597 18.5782 226.488 18.4599 227.434 17.6315C228.38 16.8032 228.498 15.3832 228.498 12.7799V11.1232Z" fill="white"/>
<path d="M263.726 23.9033C262.899 23.9033 261.717 23.43 261.126 22.8383L256.516 18.2233C256.161 17.9867 255.806 17.75 255.452 17.75C255.097 17.75 254.624 17.8684 254.388 18.2233L249.778 22.8383C249.187 23.43 248.004 23.9033 247.177 23.9033H239.73C239.257 23.9033 238.902 23.785 238.902 23.43C238.902 23.3116 239.021 23.075 239.257 22.8383L249.187 13.1351C249.541 12.8984 249.659 12.4251 249.659 12.0701C249.659 11.7151 249.541 11.2417 249.187 11.0051L239.257 1.30181C239.021 1.06515 238.902 0.82848 238.902 0.710148C238.902 0.473483 239.139 0.236816 239.73 0.236816H247.177C248.004 0.236816 249.187 0.710148 249.778 1.30181L254.388 5.91678C254.742 6.27177 255.097 6.39011 255.452 6.39011C255.806 6.39011 256.279 6.27177 256.516 5.91678L261.126 1.30181C261.717 0.710148 262.899 0.236816 263.726 0.236816H271.173C271.646 0.236816 272.001 0.355151 272.001 0.710148C272.001 0.82848 271.883 1.06515 271.646 1.30181L261.717 11.0051C261.362 11.3601 261.244 11.7151 261.244 12.0701C261.244 12.4251 261.362 12.8984 261.717 13.1351L271.646 22.8383C271.883 23.075 272.001 23.3116 272.001 23.43C272.001 23.6666 271.764 23.9033 271.173 23.9033H263.726Z" fill="white"/>
<path d="M107.338 33.606V37.8659H110.648V38.9309H107.338V50.4092C107.338 52.3025 108.048 53.1308 109.703 53.1308C109.821 53.1308 110.766 53.1308 110.885 53.1308V54.1958C110.766 54.1958 109.821 54.1958 109.584 54.1958C107.22 54.1958 106.156 53.1308 106.156 50.4092V38.9309H103.674V37.8659H106.156V33.606H107.338Z" fill="white"/>
<path d="M126.725 49.5815C126.134 52.3031 123.652 54.4331 120.105 54.4331C115.732 54.4331 112.895 51.3564 112.895 46.0315C112.895 40.9432 115.732 37.6299 119.987 37.6299C124.243 37.6299 126.961 40.8249 126.961 45.5582V46.2681H114.077V46.3865C114.077 50.7648 116.441 53.4864 120.105 53.4864C123.061 53.4864 125.07 51.8298 125.543 49.6998H126.725V49.5815ZM114.077 45.2032H125.661C125.661 41.2982 123.297 38.6949 119.869 38.6949C116.559 38.6949 114.195 41.2982 114.077 45.2032Z" fill="white"/>
<path d="M141.975 42.8362C141.503 40.4695 139.493 38.8129 136.656 38.8129C132.992 38.8129 130.746 41.6528 130.746 46.1495C130.746 50.6461 133.11 53.4861 136.656 53.4861C139.375 53.4861 141.503 51.8294 141.975 49.5811H143.158C142.685 52.5394 140.084 54.6694 136.656 54.6694C132.282 54.6694 129.445 51.4744 129.445 46.2678C129.445 41.1795 132.282 37.8662 136.656 37.8662C140.202 37.8662 142.685 40.1145 143.158 43.0728H141.975V42.8362Z" fill="white"/>
<path d="M146.701 31.5942H147.883V41.4158C148.593 39.1675 150.72 37.6292 153.557 37.6292C157.104 37.6292 159.468 39.9958 159.468 43.6641V54.1957H158.286V43.7825C158.286 40.7058 156.276 38.6942 153.321 38.6942C150.129 38.6942 147.883 41.0608 147.883 44.3741V54.0774H146.701V31.5942Z" fill="white"/>
<path d="M163.725 37.8665H164.907V41.4165C165.616 39.1682 167.744 37.6299 170.581 37.6299C174.127 37.6299 176.491 39.9965 176.491 43.6648V54.1964H175.309V43.7832C175.309 40.5882 173.3 38.6949 170.344 38.6949C167.153 38.6949 165.025 41.0615 165.025 44.3748V54.0781H163.843V37.8665H163.725Z" fill="white"/>
<path d="M179.799 46.0315C179.799 40.8249 182.754 37.6299 187.01 37.6299C191.383 37.6299 194.22 40.8249 194.22 46.0315C194.22 51.2381 191.265 54.4331 187.01 54.4331C182.636 54.4331 179.799 51.2381 179.799 46.0315ZM193.038 46.0315C193.038 41.5349 190.556 38.6949 187.01 38.6949C183.345 38.6949 180.981 41.4165 180.981 46.0315C180.981 50.5281 183.345 53.3681 187.01 53.3681C190.674 53.3681 193.038 50.5281 193.038 46.0315Z" fill="white"/>
<path d="M197.885 31.5942H199.067V54.1957H197.885V31.5942Z" fill="white"/>
<path d="M202.615 46.0315C202.615 40.8249 205.57 37.6299 209.826 37.6299C214.2 37.6299 217.037 40.8249 217.037 46.0315C217.037 51.2381 214.082 54.4331 209.826 54.4331C205.57 54.4331 202.615 51.2381 202.615 46.0315ZM215.973 46.0315C215.973 41.5349 213.49 38.6949 209.944 38.6949C206.28 38.6949 203.916 41.4165 203.916 46.0315C203.916 50.5281 206.28 53.3681 209.944 53.3681C213.49 53.3681 215.973 50.5281 215.973 46.0315Z" fill="white"/>
<path d="M220.702 55.9714H222.003C222.594 57.7464 224.485 59.048 227.204 59.048C230.632 59.048 232.76 57.0364 232.76 54.0781V49.9364C232.051 52.4214 229.686 54.4331 226.731 54.4331C222.594 54.4331 219.875 51.1198 219.875 46.0315C219.875 41.0615 222.712 37.6299 226.731 37.6299C229.686 37.6299 232.051 39.6415 232.878 42.2448V37.8665H234.06V53.9598C234.06 57.6281 231.459 59.9947 227.322 59.9947C223.658 60.113 221.175 58.2197 220.702 55.9714ZM232.76 46.0315C232.76 41.7715 230.277 38.6949 226.849 38.6949C223.421 38.6949 221.057 41.6532 221.057 46.0315C221.057 50.4098 223.421 53.2498 226.849 53.2498C230.277 53.2498 232.76 50.2915 232.76 46.0315Z" fill="white"/>
<path d="M237.959 32.8964C237.959 32.3047 238.432 31.9497 238.905 31.9497C239.378 31.9497 239.85 32.3047 239.85 32.8964C239.85 33.488 239.378 33.843 238.905 33.843C238.432 33.843 237.959 33.488 237.959 32.8964ZM238.314 37.8663H239.496V54.1962H238.314V37.8663Z" fill="white"/>
<path d="M256.991 49.5815C256.4 52.3031 253.917 54.4331 250.371 54.4331C245.997 54.4331 243.16 51.3564 243.16 46.0315C243.16 40.9432 245.997 37.6299 250.253 37.6299C254.508 37.6299 257.227 40.8249 257.227 45.5582V46.2681H244.342V46.3865C244.342 50.7648 246.706 53.4864 250.371 53.4864C253.326 53.4864 255.336 51.8298 255.809 49.6998H256.991V49.5815ZM244.342 45.2032H255.927C255.927 41.2982 253.563 38.6949 250.135 38.6949C246.825 38.6949 244.579 41.2982 244.342 45.2032Z" fill="white"/>
<path d="M265.856 37.6299C269.166 37.6299 271.412 39.5232 271.648 42.5998H270.466C270.111 40.2332 268.338 38.6949 265.738 38.6949C263.255 38.6949 261.364 40.1149 261.364 42.0082C261.364 43.5465 262.428 44.4932 265.028 45.0848L267.274 45.6765C270.466 46.3865 271.766 47.6881 271.766 49.9364C271.766 52.6581 269.284 54.4331 265.738 54.4331C262.31 54.4331 259.827 52.4214 259.473 49.5815H260.655C261.009 51.8298 263.019 53.3681 265.738 53.3681C268.575 53.3681 270.466 51.9481 270.466 49.9364C270.466 48.1615 269.402 47.3331 266.802 46.6231L264.437 46.0315C261.364 45.3215 259.945 44.0198 259.945 41.8898C260.3 39.5232 262.664 37.6299 265.856 37.6299Z" fill="white"/>
</svg>
