<svg width="36" height="36" viewBox="0 0 36 36" fill="none" xmlns="http://www.w3.org/2000/svg">
<mask id="mask0_163_258" style="mask-type:luminance" maskUnits="userSpaceOnUse" x="0" y="1" width="36" height="34">
<path d="M35.5677 16.2755L28.171 3.41152C27.6051 2.40782 26.5501 1.77868 25.398 1.75781H10.6018C9.44959 1.77812 8.39436 2.4074 7.8288 3.41152L0.429318 16.2418C-0.143106 17.2379 -0.143106 18.4631 0.429318 19.4592L7.82598 32.3963C8.38575 33.4143 9.43817 34.0643 10.599 34.1091H25.3952C26.556 34.0692 27.6103 33.4219 28.171 32.4048L35.5677 19.5407C36.1441 18.5287 36.1441 17.2876 35.5677 16.2755Z" fill="white"/>
</mask>
<g mask="url(#mask0_163_258)">
<path d="M35.5677 16.2755L28.171 3.41152C27.6051 2.40782 26.5501 1.77868 25.398 1.75781H10.6018C9.44959 1.77812 8.39436 2.4074 7.8288 3.41152L0.429318 16.2418C-0.143106 17.2379 -0.143106 18.4631 0.429318 19.4592L7.82598 32.3963C8.38575 33.4143 9.43817 34.0643 10.599 34.1091H25.3952C26.556 34.0692 27.6103 33.4219 28.171 32.4048L35.5677 19.5407C36.1441 18.5287 36.1441 17.2876 35.5677 16.2755Z" fill="#4285F4"/>
</g>
<mask id="mask1_163_258" style="mask-type:luminance" maskUnits="userSpaceOnUse" x="0" y="1" width="36" height="34">
<path d="M35.5677 16.2755L28.171 3.41152C27.6051 2.40782 26.5501 1.77868 25.398 1.75781H10.6018C9.44959 1.77812 8.39436 2.4074 7.8288 3.41152L0.429318 16.2418C-0.143106 17.2379 -0.143106 18.4631 0.429318 19.4592L7.82598 32.3963C8.38575 33.4143 9.43817 34.0643 10.599 34.1091H25.3952C26.556 34.0692 27.6103 33.4219 28.171 32.4048L35.5677 19.5407C36.1441 18.5287 36.1441 17.2876 35.5677 16.2755Z" fill="white"/>
</mask>
<g mask="url(#mask1_163_258)">
<path opacity="0.07" d="M26.3204 13.6732L25.3006 14.7855L25.5303 21.3945L24.5638 22.7954L24.0034 22.235H24.5189V19.9433L22.0451 17.4694L20.1752 18.4041L13.9736 12.1884L10.987 13.7881L10.6172 16.8867L11.665 22.5572L13.1835 24.0449L12.4915 25.0283L21.5263 34.2755H25.3006C26.4569 34.2358 27.7093 33.478 28.2679 32.4648L34.4243 21.7768L26.3204 13.6732Z" fill="black"/>
</g>
<mask id="mask2_163_258" style="mask-type:luminance" maskUnits="userSpaceOnUse" x="0" y="1" width="36" height="34">
<path d="M35.5677 16.2755L28.171 3.41152C27.6051 2.40782 26.5501 1.77868 25.398 1.75781H10.6018C9.44959 1.77812 8.39436 2.4074 7.8288 3.41152L0.429318 16.2418C-0.143106 17.2379 -0.143106 18.4631 0.429318 19.4592L7.82598 32.3963C8.38575 33.4143 9.43817 34.0643 10.599 34.1091H25.3952C26.556 34.0692 27.6103 33.4219 28.171 32.4048L35.5677 19.5407C36.1441 18.5287 36.1441 17.2876 35.5677 16.2755Z" fill="white"/>
</mask>
<g mask="url(#mask2_163_258)">
<path d="M12.4914 25.0283L13.9734 23.5462L11.7517 21.3245V14.4101L13.9734 12.1884L12.4914 10.7063L9.52441 13.6732V22.0614L12.4914 25.0283Z" fill="white"/>
</g>
<mask id="mask3_163_258" style="mask-type:luminance" maskUnits="userSpaceOnUse" x="0" y="1" width="36" height="34">
<path d="M35.5677 16.2755L28.171 3.41152C27.6051 2.40782 26.5501 1.77868 25.398 1.75781H10.6018C9.44959 1.77812 8.39436 2.4074 7.8288 3.41152L0.429318 16.2418C-0.143106 17.2379 -0.143106 18.4631 0.429318 19.4592L7.82598 32.3963C8.38575 33.4143 9.43817 34.0643 10.599 34.1091H25.3952C26.556 34.0692 27.6103 33.4219 28.171 32.4048L35.5677 19.5407C36.1441 18.5287 36.1441 17.2876 35.5677 16.2755Z" fill="white"/>
</mask>
<g mask="url(#mask3_163_258)">
<path d="M14.786 18.9179C15.3662 18.9179 15.8366 18.4475 15.8366 17.8673C15.8366 17.287 15.3662 16.8167 14.786 16.8167C14.2057 16.8167 13.7354 17.287 13.7354 17.8673C13.7354 18.4475 14.2057 18.9179 14.786 18.9179Z" fill="white"/>
</g>
<mask id="mask4_163_258" style="mask-type:luminance" maskUnits="userSpaceOnUse" x="0" y="1" width="36" height="34">
<path d="M35.5677 16.2755L28.171 3.41152C27.6051 2.40782 26.5501 1.77868 25.398 1.75781H10.6018C9.44959 1.77812 8.39436 2.4074 7.8288 3.41152L0.429318 16.2418C-0.143106 17.2379 -0.143106 18.4631 0.429318 19.4592L7.82598 32.3963C8.38575 33.4143 9.43817 34.0643 10.599 34.1091H25.3952C26.556 34.0692 27.6103 33.4219 28.171 32.4048L35.5677 19.5407C36.1441 18.5287 36.1441 17.2876 35.5677 16.2755Z" fill="white"/>
</mask>
<g mask="url(#mask4_163_258)">
<path d="M17.9295 18.9179C18.5098 18.9179 18.9801 18.4475 18.9801 17.8673C18.9801 17.287 18.5098 16.8167 17.9295 16.8167C17.3493 16.8167 16.8789 17.287 16.8789 17.8673C16.8789 18.4475 17.3493 18.9179 17.9295 18.9179Z" fill="white"/>
</g>
<mask id="mask5_163_258" style="mask-type:luminance" maskUnits="userSpaceOnUse" x="0" y="1" width="36" height="34">
<path d="M35.5677 16.2755L28.171 3.41152C27.6051 2.40782 26.5501 1.77868 25.398 1.75781H10.6018C9.44959 1.77812 8.39436 2.4074 7.8288 3.41152L0.429318 16.2418C-0.143106 17.2379 -0.143106 18.4631 0.429318 19.4592L7.82598 32.3963C8.38575 33.4143 9.43817 34.0643 10.599 34.1091H25.3952C26.556 34.0692 27.6103 33.4219 28.171 32.4048L35.5677 19.5407C36.1441 18.5287 36.1441 17.2876 35.5677 16.2755Z" fill="white"/>
</mask>
<g mask="url(#mask5_163_258)">
<path d="M21.0731 18.9179C21.6533 18.9179 22.1237 18.4475 22.1237 17.8673C22.1237 17.287 21.6533 16.8167 21.0731 16.8167C20.4928 16.8167 20.0225 17.287 20.0225 17.8673C20.0225 18.4475 20.4928 18.9179 21.0731 18.9179Z" fill="white"/>
</g>
<mask id="mask6_163_258" style="mask-type:luminance" maskUnits="userSpaceOnUse" x="0" y="1" width="36" height="34">
<path d="M35.5677 16.2755L28.171 3.41152C27.6051 2.40782 26.5501 1.77868 25.398 1.75781H10.6018C9.44959 1.77812 8.39436 2.4074 7.8288 3.41152L0.429318 16.2418C-0.143106 17.2379 -0.143106 18.4631 0.429318 19.4592L7.82598 32.3963C8.38575 33.4143 9.43817 34.0643 10.599 34.1091H25.3952C26.556 34.0692 27.6103 33.4219 28.171 32.4048L35.5677 19.5407C36.1441 18.5287 36.1441 17.2876 35.5677 16.2755Z" fill="white"/>
</mask>
<g mask="url(#mask6_163_258)">
<path d="M23.3532 10.7063L21.8711 12.1884L24.0928 14.4101V21.3245L21.8711 23.5462L23.3532 25.0283L26.3201 22.0614V13.6732L23.3532 10.7063Z" fill="white"/>
</g>
</svg>
