<svg width="38" height="38" viewBox="0 0 38 38" fill="none" xmlns="http://www.w3.org/2000/svg">
<path d="M12.2119 1.13237C11.4254 1.13237 10.7225 1.3085 10.1228 1.65558C9.54607 1.98938 9.06148 2.48671 8.68213 3.13396C8.32671 3.74044 8.06487 4.47856 7.90346 5.32762C7.59269 6.96421 7.66002 9.01303 8.09836 11.2515C8.15364 11.5332 8.21458 11.8184 8.27996 12.1019C7.93021 12.2082 7.59056 12.3177 7.26774 12.4302C5.1547 13.1669 3.38758 14.1295 2.15763 15.2144C1.51979 15.7762 1.02653 16.3701 0.689017 16.9794C0.330392 17.6274 0.148438 18.292 0.148438 18.9548C0.148438 20.2837 0.884599 21.6302 2.27721 22.8516C3.58833 24.002 5.44249 25.0064 7.63788 25.7573C7.84181 25.8266 8.04929 25.8939 8.25799 25.9582C8.185 26.2759 8.1175 26.5961 8.05673 26.915C7.63929 29.1134 7.59058 31.1253 7.91499 32.7326C8.08349 33.5653 8.35101 34.2898 8.71032 34.8865C9.09231 35.5208 9.57725 36.0105 10.1515 36.3417C10.7565 36.6905 11.4686 36.8673 12.2679 36.8673C13.3561 36.8673 14.5728 36.5447 15.8841 35.9083C17.1697 35.2844 18.4821 34.3909 19.7845 33.2526C19.9852 33.0772 20.192 32.8895 20.3986 32.6939H20.707V32.6933H30.0544C31.4177 32.6933 32.5937 32.4944 33.5822 32.0964C34.5728 31.6992 35.3787 31.163 36.0132 30.4897C36.6477 29.8164 37.1103 29.0133 37.4069 28.0801C37.7035 27.1547 37.8516 26.1524 37.8516 25.0817C37.8522 23.2148 37.5136 21.6697 36.8437 20.4302C36.1791 19.2083 35.2015 18.4156 33.9106 18.052C33.9007 18.048 33.8922 18.041 33.8865 18.0319C33.8808 18.0228 33.8782 18.0122 33.8789 18.0015C33.8784 17.9921 33.8804 17.9828 33.8847 17.9745C33.8889 17.9661 33.8953 17.9591 33.9032 17.954C34.8642 17.4196 35.6029 16.6586 36.1206 15.6879C36.6421 14.7088 36.9029 13.5307 36.903 12.1533C36.903 9.88099 36.328 8.19062 35.1833 7.06635C34.0385 5.94197 32.5146 5.38316 30.6173 5.38316H20.387C20.2277 5.23357 20.0652 5.08504 19.9028 4.9404C18.5506 3.74055 17.2021 2.79922 15.8938 2.14473C14.5524 1.47287 13.3135 1.13237 12.2119 1.13237ZM12.2231 3.80207C12.9046 3.80207 13.7865 4.06961 14.7728 4.57582C15.8419 5.12507 17.0012 5.94207 18.1254 6.94028C18.1951 7.00217 18.2664 7.06647 18.3393 7.1332C17.3504 8.22656 16.376 9.4415 15.4392 10.7494C13.8432 10.9054 12.309 11.1382 10.8724 11.4424C10.8205 11.2149 10.7717 10.9861 10.7271 10.7602L10.7228 10.7369C10.3804 8.98704 10.2969 7.3881 10.4815 6.1154C10.641 5.0215 10.9978 4.23959 11.4625 3.97048C11.6555 3.85868 11.9114 3.80207 12.2231 3.80207ZM20.3301 8.85281V29.1401L19.1273 27.6549L18.3414 26.6849C17.9447 26.1951 17.3094 25.2889 16.5519 24.1335C15.9495 23.215 15.5108 22.4774 15.3028 22.1202L15.2802 22.0811C14.9171 21.4551 14.6475 20.9509 14.431 20.546C14.1599 20.0387 13.8925 19.5207 13.6353 19.0046L13.6824 18.913L13.6854 18.9078C13.9688 18.3299 14.2672 17.7496 14.5743 17.183L14.5769 17.1782L14.9027 16.5461L15.384 15.7488L15.387 15.7436C15.5666 15.4378 15.753 15.1292 15.941 14.8262L16.2721 14.2792C16.713 13.5494 17.0673 13.0172 17.6263 12.2459C17.9275 11.8308 18.2131 11.4663 18.6656 10.9008L18.6668 10.8996L18.6892 10.8714L18.6979 10.8603C18.8816 10.6261 19.0671 10.3952 19.249 10.1741L19.2551 10.1666L19.2586 10.1622C19.6125 9.72393 19.9718 9.28485 20.3301 8.85281ZM24.0859 9.2516H30.1003C31.1093 9.2516 31.881 9.5351 32.4151 10.0941C32.9491 10.6531 33.2159 11.6249 33.2159 13.003C33.2159 14.2287 32.9193 15.1632 32.3256 15.8216C31.7319 16.48 30.9902 16.8017 30.0997 16.8017H24.0853C24.0632 16.8017 24.0451 16.7785 24.0451 16.7498L24.0454 9.3036C24.0454 9.27489 24.0634 9.2516 24.0859 9.2516ZM13.4984 13.6845C13.2809 14.0408 13.0672 14.4005 12.8606 14.759C12.654 15.1174 12.451 15.4799 12.2525 15.8447C12.0128 15.2299 11.7933 14.6199 11.5969 14.0232C12.2095 13.8968 12.8462 13.7834 13.4984 13.6845ZM8.99839 14.6796C9.45071 16.0816 10.0169 17.532 10.6818 18.9961C10.0068 20.4844 9.43319 21.958 8.97449 23.3809C8.81503 23.3312 8.65752 23.2795 8.50231 23.2267C6.67736 22.6028 5.15742 21.7976 4.10678 20.898C3.30293 20.2097 2.82312 19.4836 2.82312 18.9556C2.82312 18.4136 3.30311 17.7154 4.14027 17.0386C5.11476 16.2507 6.50152 15.5306 8.14778 14.9567C8.42754 14.8596 8.71259 14.7666 8.99839 14.6796ZM24.0856 20.2451H30.6026C31.7305 20.2451 32.597 20.5975 33.226 21.3321C33.855 22.0667 34.1639 23.1007 34.1639 24.4558C34.1642 25.8337 33.8492 26.9056 33.2264 27.6558C32.6088 28.4134 31.7309 28.7897 30.6029 28.7897H24.0856C24.0635 28.7897 24.0454 28.7665 24.0454 28.7378V20.2971C24.0454 20.2684 24.0631 20.2451 24.0856 20.2451ZM12.2551 22.1435C12.4551 22.5103 12.6603 22.8753 12.8678 23.2337C13.0852 23.6091 13.3107 23.9864 13.5402 24.3602C12.8587 24.2659 12.2003 24.1559 11.5749 24.0322C11.7778 23.4146 12.0056 22.7819 12.2551 22.1435ZM10.8512 26.6121C12.2686 26.9021 13.8205 27.1208 15.4711 27.2626C16.4169 28.5797 17.3995 29.8027 18.3955 30.9025C18.2725 31.0158 18.1485 31.1272 18.0251 31.2355C16.5835 32.4957 15.1356 33.4068 13.8389 33.8703L13.812 33.8798C13.2308 34.085 12.7119 34.189 12.2705 34.189C11.9449 34.189 11.6819 34.1327 11.489 34.0214C11.0193 33.7505 10.6538 32.9856 10.4862 31.9227C10.2902 30.6841 10.3588 29.1239 10.6841 27.4108C10.7348 27.1451 10.7904 26.8779 10.8512 26.6121Z" fill="#41E0FF"/>
</svg>
