<svg width="32" height="32" viewBox="0 0 32 32" fill="none" xmlns="http://www.w3.org/2000/svg">
<path d="M16 5C26 5 32 16 32 16C32 16 26 27 16 27C6 27 0 16 0 16C0 16 6 5 16 5ZM16 7C8.96 7 3.996 13.502 2.35 16C3.994 18.496 8.958 25 16 25C23.04 25 28.004 18.498 29.65 16C28.006 13.504 23.042 7 16 7ZM16 9C17.8565 9 19.637 9.7375 20.9497 11.0503C22.2625 12.363 23 14.1435 23 16C23 17.8565 22.2625 19.637 20.9497 20.9497C19.637 22.2625 17.8565 23 16 23C14.1435 23 12.363 22.2625 11.0503 20.9497C9.7375 19.637 9 17.8565 9 16C9 14.1435 9.7375 12.363 11.0503 11.0503C12.363 9.7375 14.1435 9 16 9ZM16 11C14.6744 11.0016 13.4036 11.5289 12.4662 12.4662C11.5289 13.4036 11.0016 14.6744 11 16C11 18.756 13.242 21 16 21C18.758 21 21 18.756 21 16C21 13.244 18.758 11 16 11Z" fill="white"/>
</svg>
